<svg version="1.1" id="Layer_1" xmlns="http://www.w3.org/2000/svg" xmlns:xlink="http://www.w3.org/1999/xlink" x="0px" y="0px"
	 width="100%" viewBox="0 0 1600 1600" enable-background="new 0 0 1600 1600" xml:space="preserve">
<path fill="#000000" opacity="1.000000" stroke="none" 
	d="
M865.000000,1601.000000 
	C576.666748,1601.000000 288.833435,1601.000000 1.000116,1601.000000 
	C1.000077,1067.666870 1.000077,534.333618 1.000039,1.000330 
	C534.333069,1.000220 1067.666138,1.000220 1600.999512,1.000110 
	C1600.999634,534.333008 1600.999634,1067.666016 1600.999756,1600.999512 
	C1355.833374,1601.000000 1110.666626,1601.000000 865.000000,1601.000000 
M1434.530518,334.240326 
	C1419.752808,329.534912 1404.988159,324.788330 1390.194214,320.134460 
	C1371.486328,314.249359 1352.735352,308.500610 1334.037231,302.584808 
	C1294.625244,290.115479 1255.245483,277.543823 1215.832031,265.079315 
	C1198.382935,259.561005 1180.864136,254.263062 1163.411377,248.756317 
	C1124.298218,236.415344 1085.211060,223.992233 1046.104736,211.630020 
	C1021.800171,203.946899 997.476440,196.324631 973.167358,188.655930 
	C940.756775,178.431488 908.340271,168.225479 875.948792,157.940964 
	C852.585938,150.523102 829.291992,142.885452 805.876953,135.637741 
	C802.868469,134.706512 799.073364,134.743820 796.053101,135.670471 
	C770.122742,143.626282 744.288757,151.896057 718.422302,160.060394 
	C693.646790,167.880402 668.857971,175.658432 644.091064,183.505646 
	C612.160828,193.622467 580.261841,203.838257 548.320435,213.919769 
	C523.388062,221.789062 498.393219,229.460266 473.458954,237.323654 
	C434.344543,249.658981 395.249023,262.054535 356.162628,274.478394 
	C332.958832,281.853851 309.806763,289.392273 286.597809,296.751343 
	C247.394714,309.181824 208.164902,321.528046 168.097244,334.047485 
	C167.729248,336.025360 167.039200,338.003143 167.038864,339.981079 
	C166.991043,624.935791 166.993286,909.890503 166.993637,1194.845215 
	C166.993637,1196.178345 166.750473,1197.576294 167.075989,1198.825317 
	C167.367386,1199.943359 168.051605,1201.449951 168.966583,1201.841797 
	C186.407547,1209.311646 203.904617,1216.650757 221.397903,1223.998169 
	C237.079391,1230.584595 252.779953,1237.125610 268.454620,1243.728027 
	C284.431335,1250.457520 300.372223,1257.272217 316.355560,1263.985840 
	C331.884979,1270.508789 347.461761,1276.919067 362.993347,1283.436890 
	C379.278168,1290.270874 395.533813,1297.174438 411.802612,1304.046631 
	C427.474060,1310.666626 443.140930,1317.297485 458.819244,1323.901245 
	C474.792358,1330.629150 490.781952,1337.317993 506.755676,1344.044556 
	C522.433777,1350.646729 538.096741,1357.285156 553.774292,1363.888550 
	C569.747742,1370.616577 585.734741,1377.312256 601.708740,1384.038940 
	C617.386353,1390.640991 633.051575,1397.272339 648.728699,1403.875488 
	C664.702637,1410.603638 680.681702,1417.319824 696.663452,1424.029419 
	C714.307800,1431.437500 731.948669,1438.853882 749.607727,1446.226685 
	C766.350830,1453.217163 783.115601,1460.155884 800.282166,1467.690186 
	C800.761780,1467.712524 801.312195,1467.901978 801.710938,1467.733398 
	C825.624329,1457.615601 849.509399,1447.430908 873.431091,1437.332764 
	C911.439270,1421.287964 949.460815,1405.274780 987.495911,1389.293823 
	C1022.956299,1374.394653 1058.461548,1359.601929 1093.910522,1344.675903 
	C1128.145142,1330.261108 1162.312744,1315.687012 1196.547119,1301.271973 
	C1231.996094,1286.345459 1267.494263,1271.536377 1302.962402,1256.655396 
	C1325.391479,1247.244995 1347.807739,1237.804077 1370.224121,1228.363892 
	C1389.311401,1220.325806 1408.311035,1212.070923 1427.522949,1204.343506 
	C1433.177246,1202.069214 1435.180786,1199.266357 1435.176147,1192.884033 
	C1434.971558,909.386963 1434.999634,625.889709 1434.991333,342.392487 
	C1434.991333,339.896057 1434.872925,337.399628 1434.530518,334.240326 
z"/>
<path fill="#DD2C00" opacity="1.000000" stroke="none" 
	d="
M799.870911,1467.117188 
	C783.115601,1460.155884 766.350830,1453.217163 749.607727,1446.226685 
	C731.948669,1438.853882 714.307800,1431.437500 696.663452,1424.029419 
	C680.681702,1417.319824 664.702637,1410.603638 648.728699,1403.875488 
	C633.051575,1397.272339 617.386353,1390.640991 601.708740,1384.038940 
	C585.734741,1377.312256 569.747742,1370.616577 553.774292,1363.888550 
	C538.096741,1357.285156 522.433777,1350.646729 506.755676,1344.044556 
	C490.781952,1337.317993 474.792358,1330.629150 458.819244,1323.901245 
	C443.140930,1317.297485 427.474060,1310.666626 411.802612,1304.046631 
	C395.533813,1297.174438 379.278168,1290.270874 362.993347,1283.436890 
	C347.461761,1276.919067 331.884979,1270.508789 316.355560,1263.985840 
	C300.372223,1257.272217 284.431335,1250.457520 268.454620,1243.728027 
	C252.779953,1237.125610 237.079391,1230.584595 221.397903,1223.998169 
	C203.904617,1216.650757 186.407547,1209.311646 168.966583,1201.841797 
	C168.051605,1201.449951 167.367386,1199.943359 167.075989,1198.825317 
	C166.750473,1197.576294 166.993637,1196.178345 166.993637,1194.845215 
	C166.993286,909.890503 166.991043,624.935791 167.038864,339.981079 
	C167.039200,338.003143 167.729248,336.025360 168.777191,334.236145 
	C171.008362,335.014099 172.535507,335.679138 174.114471,336.181183 
	C193.621536,342.383362 213.130219,348.580505 232.650192,354.741882 
	C263.119659,364.359497 293.603546,373.931580 324.071625,383.553711 
	C375.805573,399.891815 427.529510,416.261658 479.262482,432.602783 
	C509.888733,442.276794 540.528625,451.907715 571.154846,461.581848 
	C622.887817,477.923157 674.610291,494.297363 726.346069,510.629791 
	C751.260376,518.494995 776.194824,526.296753 801.091125,534.587097 
	C801.041443,537.546265 801.002563,540.045593 801.002563,542.544922 
	C800.999817,848.172058 801.002808,1153.799194 800.953308,1459.426270 
	C800.952881,1461.989868 800.247253,1464.553589 799.870911,1467.117188 
M626.184937,761.307922 
	C613.035767,713.747742 588.342896,673.519226 549.627625,642.552917 
	C516.825439,616.316223 479.594421,601.103943 437.145020,601.186218 
	C399.557098,601.259094 369.889557,622.025635 355.876648,656.697327 
	C345.111115,683.334106 344.655914,710.953796 348.597473,738.768860 
	C353.745178,775.095093 369.763641,806.788330 391.980499,835.557190 
	C414.260956,864.408508 441.574646,888.003235 470.342072,910.042297 
	C491.364899,926.148254 512.340149,942.257812 530.968689,961.247009 
	C555.387268,986.138489 566.251526,1015.538757 561.994568,1050.273804 
	C559.390930,1071.518188 546.527832,1092.192505 516.996704,1088.931641 
	C484.529968,1085.346680 456.899292,1070.986816 434.738647,1047.060547 
	C412.574768,1023.130859 403.279694,993.915405 402.443329,961.746460 
	C402.352448,958.250671 401.461548,956.439453 397.958191,955.296692 
	C387.695923,951.949280 377.569183,948.186829 367.386444,944.595276 
	C356.469971,940.744934 345.550232,936.903992 332.842346,932.428711 
	C335.279327,950.357666 336.064301,967.330872 340.047363,983.517151 
	C358.278717,1057.604614 401.949738,1112.157959 469.734131,1146.934326 
	C497.265686,1161.059204 526.512329,1169.760132 558.084656,1167.048706 
	C589.480591,1164.352539 611.605591,1148.462158 624.039001,1119.578491 
	C635.954041,1091.898804 635.852966,1062.807007 632.527161,1033.614136 
	C627.773315,991.886169 610.283813,955.618652 584.057983,923.211670 
	C560.818420,894.494812 533.036682,870.723999 503.484863,848.890869 
	C481.623291,832.739319 460.253204,816.083008 441.978333,795.766907 
	C421.404846,772.895325 410.892975,746.944763 415.934204,715.712830 
	C420.039978,690.276367 436.510254,675.573547 461.071014,677.512024 
	C492.585388,679.999329 518.893433,693.300476 538.603149,718.419556 
	C555.521179,739.980713 561.866882,765.168823 562.680420,792.036255 
	C562.783386,795.436218 563.791077,796.942749 567.039368,797.944153 
	C577.688232,801.227112 588.230957,804.854248 598.815308,808.346558 
	C610.421753,812.176086 622.029236,816.002747 634.015381,819.955688 
	C634.051697,799.894653 631.387024,780.841675 626.184937,761.307922 
z"/>
<path fill="#A52005" opacity="1.000000" stroke="none" 
	d="
M800.076538,1467.403687 
	C800.247253,1464.553589 800.952881,1461.989868 800.953308,1459.426270 
	C801.002808,1153.799194 800.999817,848.172058 801.002563,542.544922 
	C801.002563,540.045593 801.041443,537.546265 801.479858,534.545044 
	C809.851868,531.649292 817.833008,529.340942 825.755798,526.846863 
	C863.192810,515.061829 900.614319,503.227356 938.040588,491.408051 
	C989.264832,475.231293 1040.487915,459.050842 1091.712402,442.874939 
	C1129.138916,431.056213 1166.570312,419.253113 1203.993530,407.424042 
	C1268.692505,386.973389 1333.380005,366.486328 1398.089233,346.068054 
	C1410.289062,342.218536 1422.567627,338.618378 1434.809814,334.903198 
	C1434.872925,337.399628 1434.991333,339.896057 1434.991333,342.392487 
	C1434.999634,625.889709 1434.971558,909.386963 1435.176147,1192.884033 
	C1435.180786,1199.266357 1433.177246,1202.069214 1427.522949,1204.343506 
	C1408.311035,1212.070923 1389.311401,1220.325806 1370.224121,1228.363892 
	C1347.807739,1237.804077 1325.391479,1247.244995 1302.962402,1256.655396 
	C1267.494263,1271.536377 1231.996094,1286.345459 1196.547119,1301.271973 
	C1162.312744,1315.687012 1128.145142,1330.261108 1093.910522,1344.675903 
	C1058.461548,1359.601929 1022.956299,1374.394653 987.495911,1389.293823 
	C949.460815,1405.274780 911.439270,1421.287964 873.431091,1437.332764 
	C849.509399,1447.430908 825.624329,1457.615601 801.710938,1467.733398 
	C801.312195,1467.901978 800.761780,1467.712524 800.076538,1467.403687 
M1170.442993,996.085327 
	C1178.090210,1036.188965 1185.737427,1076.292725 1193.443481,1116.704712 
	C1195.587646,1115.905151 1197.145996,1115.376465 1198.664185,1114.749756 
	C1213.718750,1108.535767 1228.635498,1101.956055 1243.877319,1096.242676 
	C1250.482910,1093.766357 1254.757202,1090.830811 1254.443970,1083.120361 
	C1254.311401,1079.861694 1255.429321,1076.559937 1255.907104,1073.267456 
	C1264.342529,1015.127991 1272.734375,956.982239 1281.202759,898.847595 
	C1290.390869,835.771362 1299.660522,772.707031 1308.871704,709.634155 
	C1316.544189,657.098633 1324.189453,604.559143 1331.828369,552.018677 
	C1332.647583,546.383667 1333.343384,540.730713 1334.192383,534.365723 
	C1314.932373,541.093872 1296.636597,547.621399 1278.223877,553.800232 
	C1274.616577,555.010803 1273.416626,556.904175 1273.008911,560.414673 
	C1271.376465,574.471130 1269.541626,588.504700 1267.708984,602.537170 
	C1262.470337,642.647095 1257.182739,682.750671 1251.940063,722.860107 
	C1247.495117,756.867065 1243.100342,790.880615 1238.657104,824.887817 
	C1233.092407,867.475891 1227.508667,910.061401 1221.912354,952.645264 
	C1221.082642,958.958618 1220.138794,965.256897 1219.247803,971.562134 
	C1218.951172,971.523254 1218.654541,971.484375 1218.357788,971.445496 
	C1195.814819,847.235229 1173.271851,723.025024 1150.748657,598.923584 
	C1150.128906,598.793091 1149.770508,598.592102 1149.511841,598.681091 
	C1132.700073,604.464661 1115.881836,610.231079 1099.127197,616.176575 
	C1098.107178,616.538513 1097.156982,618.253845 1096.922974,619.482178 
	C1095.646606,626.179260 1094.590698,632.918762 1093.485229,639.648010 
	C1086.309448,683.327332 1079.133911,727.006714 1071.970947,770.688110 
	C1065.507446,810.104431 1059.074707,849.525879 1052.601318,888.940552 
	C1045.077026,934.753967 1037.526489,980.563171 1029.979004,1026.372681 
	C1028.851318,1033.217163 1027.677246,1040.053833 1026.524780,1046.894043 
	C1026.159058,1046.855713 1025.793213,1046.817261 1025.427490,1046.778809 
	C1006.056213,918.544312 986.684937,790.309814 967.273560,661.809937 
	C944.747620,669.643982 922.972961,677.216736 901.000916,684.858154 
	C930.488159,857.002014 959.912842,1028.780762 989.409485,1200.980103 
	C1009.973206,1192.521606 1030.114990,1184.307739 1050.149292,1175.838989 
	C1051.508301,1175.264404 1052.610352,1172.867065 1052.902466,1171.158691 
	C1063.732910,1107.852173 1074.432129,1044.523193 1085.194458,981.205078 
	C1097.183594,910.669617 1109.213013,840.140930 1121.239502,769.611877 
	C1122.051514,764.849731 1122.986206,760.108521 1123.863892,755.357544 
	C1133.493042,801.583008 1142.260254,847.663513 1151.010254,893.747314 
	C1157.433716,927.578857 1163.834839,961.414734 1170.442993,996.085327 
z"/>
<path fill="#FE3C00" opacity="1.000000" stroke="none" 
	d="
M1434.670166,334.571777 
	C1422.567627,338.618378 1410.289062,342.218536 1398.089233,346.068054 
	C1333.380005,366.486328 1268.692505,386.973389 1203.993530,407.424042 
	C1166.570312,419.253113 1129.138916,431.056213 1091.712402,442.874939 
	C1040.487915,459.050842 989.264832,475.231293 938.040588,491.408051 
	C900.614319,503.227356 863.192810,515.061829 825.755798,526.846863 
	C817.833008,529.340942 809.851868,531.649292 801.508850,534.085205 
	C776.194824,526.296753 751.260376,518.494995 726.346069,510.629791 
	C674.610291,494.297363 622.887817,477.923157 571.154846,461.581848 
	C540.528625,451.907715 509.888733,442.276794 479.262482,432.602783 
	C427.529510,416.261658 375.805573,399.891815 324.071625,383.553711 
	C293.603546,373.931580 263.119659,364.359497 232.650192,354.741882 
	C213.130219,348.580505 193.621536,342.383362 174.114471,336.181183 
	C172.535507,335.679138 171.008362,335.014099 169.201721,334.167297 
	C208.164902,321.528046 247.394714,309.181824 286.597809,296.751343 
	C309.806763,289.392273 332.958832,281.853851 356.162628,274.478394 
	C395.249023,262.054535 434.344543,249.658981 473.458954,237.323654 
	C498.393219,229.460266 523.388062,221.789062 548.320435,213.919769 
	C580.261841,203.838257 612.160828,193.622467 644.091064,183.505646 
	C668.857971,175.658432 693.646790,167.880402 718.422302,160.060394 
	C744.288757,151.896057 770.122742,143.626282 796.053101,135.670471 
	C799.073364,134.743820 802.868469,134.706512 805.876953,135.637741 
	C829.291992,142.885452 852.585938,150.523102 875.948792,157.940964 
	C908.340271,168.225479 940.756775,178.431488 973.167358,188.655930 
	C997.476440,196.324631 1021.800171,203.946899 1046.104736,211.630020 
	C1085.211060,223.992233 1124.298218,236.415344 1163.411377,248.756317 
	C1180.864136,254.263062 1198.382935,259.561005 1215.832031,265.079315 
	C1255.245483,277.543823 1294.625244,290.115479 1334.037231,302.584808 
	C1352.735352,308.500610 1371.486328,314.249359 1390.194214,320.134460 
	C1404.988159,324.788330 1419.752808,329.534912 1434.670166,334.571777 
z"/>
<path fill="#FEFDFD" opacity="1.000000" stroke="none" 
	d="
M626.311646,761.695068 
	C631.387024,780.841675 634.051697,799.894653 634.015381,819.955688 
	C622.029236,816.002747 610.421753,812.176086 598.815308,808.346558 
	C588.230957,804.854248 577.688232,801.227112 567.039368,797.944153 
	C563.791077,796.942749 562.783386,795.436218 562.680420,792.036255 
	C561.866882,765.168823 555.521179,739.980713 538.603149,718.419556 
	C518.893433,693.300476 492.585388,679.999329 461.071014,677.512024 
	C436.510254,675.573547 420.039978,690.276367 415.934204,715.712830 
	C410.892975,746.944763 421.404846,772.895325 441.978333,795.766907 
	C460.253204,816.083008 481.623291,832.739319 503.484863,848.890869 
	C533.036682,870.723999 560.818420,894.494812 584.057983,923.211670 
	C610.283813,955.618652 627.773315,991.886169 632.527161,1033.614136 
	C635.852966,1062.807007 635.954041,1091.898804 624.039001,1119.578491 
	C611.605591,1148.462158 589.480591,1164.352539 558.084656,1167.048706 
	C526.512329,1169.760132 497.265686,1161.059204 469.734131,1146.934326 
	C401.949738,1112.157959 358.278717,1057.604614 340.047363,983.517151 
	C336.064301,967.330872 335.279327,950.357666 332.842346,932.428711 
	C345.550232,936.903992 356.469971,940.744934 367.386444,944.595276 
	C377.569183,948.186829 387.695923,951.949280 397.958191,955.296692 
	C401.461548,956.439453 402.352448,958.250671 402.443329,961.746460 
	C403.279694,993.915405 412.574768,1023.130859 434.738647,1047.060547 
	C456.899292,1070.986816 484.529968,1085.346680 516.996704,1088.931641 
	C546.527832,1092.192505 559.390930,1071.518188 561.994568,1050.273804 
	C566.251526,1015.538757 555.387268,986.138489 530.968689,961.247009 
	C512.340149,942.257812 491.364899,926.148254 470.342072,910.042297 
	C441.574646,888.003235 414.260956,864.408508 391.980499,835.557190 
	C369.763641,806.788330 353.745178,775.095093 348.597473,738.768860 
	C344.655914,710.953796 345.111115,683.334106 355.876648,656.697327 
	C369.889557,622.025635 399.557098,601.259094 437.145020,601.186218 
	C479.594421,601.103943 516.825439,616.316223 549.627625,642.552917 
	C588.342896,673.519226 613.035767,713.747742 626.311646,761.695068 
z"/>
<path fill="#FEFDFD" opacity="1.000000" stroke="none" 
	d="
M1170.344482,995.666992 
	C1163.834839,961.414734 1157.433716,927.578857 1151.010254,893.747314 
	C1142.260254,847.663513 1133.493042,801.583008 1123.863892,755.357544 
	C1122.986206,760.108521 1122.051514,764.849731 1121.239502,769.611877 
	C1109.213013,840.140930 1097.183594,910.669617 1085.194458,981.205078 
	C1074.432129,1044.523193 1063.732910,1107.852173 1052.902466,1171.158691 
	C1052.610352,1172.867065 1051.508301,1175.264404 1050.149292,1175.838989 
	C1030.114990,1184.307739 1009.973206,1192.521606 989.409485,1200.980103 
	C959.912842,1028.780762 930.488159,857.002014 901.000916,684.858154 
	C922.972961,677.216736 944.747620,669.643982 967.273560,661.809937 
	C986.684937,790.309814 1006.056213,918.544312 1025.427490,1046.778809 
	C1025.793213,1046.817261 1026.159058,1046.855713 1026.524780,1046.894043 
	C1027.677246,1040.053833 1028.851318,1033.217163 1029.979004,1026.372681 
	C1037.526489,980.563171 1045.077026,934.753967 1052.601318,888.940552 
	C1059.074707,849.525879 1065.507446,810.104431 1071.970947,770.688110 
	C1079.133911,727.006714 1086.309448,683.327332 1093.485229,639.648010 
	C1094.590698,632.918762 1095.646606,626.179260 1096.922974,619.482178 
	C1097.156982,618.253845 1098.107178,616.538513 1099.127197,616.176575 
	C1115.881836,610.231079 1132.700073,604.464661 1149.511841,598.681091 
	C1149.770508,598.592102 1150.128906,598.793091 1150.748657,598.923584 
	C1173.271851,723.025024 1195.814819,847.235229 1218.357788,971.445496 
	C1218.654541,971.484375 1218.951172,971.523254 1219.247803,971.562134 
	C1220.138794,965.256897 1221.082642,958.958618 1221.912354,952.645264 
	C1227.508667,910.061401 1233.092407,867.475891 1238.657104,824.887817 
	C1243.100342,790.880615 1247.495117,756.867065 1251.940063,722.860107 
	C1257.182739,682.750671 1262.470337,642.647095 1267.708984,602.537170 
	C1269.541626,588.504700 1271.376465,574.471130 1273.008911,560.414673 
	C1273.416626,556.904175 1274.616577,555.010803 1278.223877,553.800232 
	C1296.636597,547.621399 1314.932373,541.093872 1334.192383,534.365723 
	C1333.343384,540.730713 1332.647583,546.383667 1331.828369,552.018677 
	C1324.189453,604.559143 1316.544189,657.098633 1308.871704,709.634155 
	C1299.660522,772.707031 1290.390869,835.771362 1281.202759,898.847595 
	C1272.734375,956.982239 1264.342529,1015.127991 1255.907104,1073.267456 
	C1255.429321,1076.559937 1254.311401,1079.861694 1254.443970,1083.120361 
	C1254.757202,1090.830811 1250.482910,1093.766357 1243.877319,1096.242676 
	C1228.635498,1101.956055 1213.718750,1108.535767 1198.664185,1114.749756 
	C1197.145996,1115.376465 1195.587646,1115.905151 1193.443481,1116.704712 
	C1185.737427,1076.292725 1178.090210,1036.188965 1170.344482,995.666992 
z"/>
</svg>