<svg version="1.1" id="Layer_1" xmlns="http://www.w3.org/2000/svg" xmlns:xlink="http://www.w3.org/1999/xlink" x="0px" y="0px"
	 width="100%" viewBox="0 0 200 200" enable-background="new 0 0 200 200" xml:space="preserve">
<path fill="#000000" opacity="1.000000" stroke="none" 
	d="
M148.000000,201.000000 
	C98.666672,201.000000 49.833340,201.000000 1.000006,201.000000 
	C1.000004,134.333344 1.000004,67.666679 1.000002,1.000015 
	C67.666656,1.000010 134.333313,1.000010 200.999969,1.000005 
	C200.999985,67.666649 200.999985,134.333298 201.000000,200.999969 
	C183.500000,201.000000 166.000000,201.000000 148.000000,201.000000 
M117.061783,96.515930 
	C117.061783,101.954834 117.061783,107.393730 117.061783,112.825775 
	C125.342300,112.825775 133.071426,112.825775 140.756012,112.825775 
	C140.756012,95.471878 140.756012,78.409225 140.756012,61.345047 
	C123.404907,61.345047 106.344040,61.345047 89.285965,61.345047 
	C89.285965,69.361588 89.285965,77.096672 89.285965,85.214798 
	C98.645882,85.214798 107.726982,85.214798 117.061783,85.214798 
	C117.061783,88.908806 117.061783,92.215714 117.061783,96.515930 
M61.066547,97.550064 
	C61.066547,102.635956 61.066547,107.721855 61.066547,112.877266 
	C69.299080,112.877266 77.002838,112.877266 84.709099,112.877266 
	C84.709099,104.799347 84.709099,96.964935 84.709099,89.330727 
	C76.659592,89.330727 68.953659,89.330727 61.066547,89.330727 
	C61.066547,91.963150 61.066547,94.267242 61.066547,97.550064 
M113.033905,89.701447 
	C105.052963,89.701447 97.072021,89.701447 89.313217,89.701447 
	C89.313217,97.468918 89.313217,105.218323 89.313217,112.833130 
	C97.367966,112.833130 105.110245,112.833130 113.104790,112.833130 
	C113.104790,105.262146 113.104790,97.968025 113.033905,89.701447 
M111.284294,117.066200 
	C103.898857,117.066200 96.513420,117.066200 89.315521,117.066200 
	C89.315521,125.466263 89.315521,133.180252 89.315521,140.797028 
	C97.357193,140.797028 105.082100,140.797028 113.522881,140.797028 
	C113.088387,132.722427 112.668587,124.920952 111.284294,117.066200 
z"/>
<path fill="#FEFEFE" opacity="1.000000" stroke="none" 
	d="
M117.061783,96.019272 
	C117.061783,92.215714 117.061783,88.908806 117.061783,85.214798 
	C107.726982,85.214798 98.645882,85.214798 89.285965,85.214798 
	C89.285965,77.096672 89.285965,69.361588 89.285965,61.345047 
	C106.344040,61.345047 123.404907,61.345047 140.756012,61.345047 
	C140.756012,78.409225 140.756012,95.471878 140.756012,112.825775 
	C133.071426,112.825775 125.342300,112.825775 117.061783,112.825775 
	C117.061783,107.393730 117.061783,101.954834 117.061783,96.019272 
z"/>
<path fill="#FEFEFE" opacity="1.000000" stroke="none" 
	d="
M61.066547,97.060699 
	C61.066547,94.267242 61.066547,91.963150 61.066547,89.330727 
	C68.953659,89.330727 76.659592,89.330727 84.709099,89.330727 
	C84.709099,96.964935 84.709099,104.799347 84.709099,112.877266 
	C77.002838,112.877266 69.299080,112.877266 61.066547,112.877266 
	C61.066547,107.721855 61.066547,102.635956 61.066547,97.060699 
z"/>
<path fill="#FFFFFF" opacity="1.000000" stroke="none" 
	d="
M113.069351,90.187683 
	C113.104790,97.968025 113.104790,105.262146 113.104790,112.833130 
	C105.110245,112.833130 97.367966,112.833130 89.313217,112.833130 
	C89.313217,105.218323 89.313217,97.468918 89.313217,89.701447 
	C97.072021,89.701447 105.052963,89.701447 113.069351,90.187683 
z"/>
<path fill="#FEFEFE" opacity="1.000000" stroke="none" 
	d="
M111.766541,117.092834 
	C112.668587,124.920952 113.088387,132.722427 113.522881,140.797028 
	C105.082100,140.797028 97.357193,140.797028 89.315521,140.797028 
	C89.315521,133.180252 89.315521,125.466263 89.315521,117.066200 
	C96.513420,117.066200 103.898857,117.066200 111.766541,117.092834 
z"/>
</svg>