<?xml version="1.0" encoding="UTF-8"?>
<svg id="Layer_1" data-name="Layer 1" xmlns="http://www.w3.org/2000/svg" viewBox="0 0 1046.4 259.44">
  <defs>
    <style>
      .cls-1 {
        fill: #281d64;
      }

      .cls-2 {
        fill: none;
      }

      .cls-3 {
        fill: #109cbf;
      }
    </style>
  </defs>
  <path class="cls-1" d="M167.53,105.14c.84-.08,1.69-.17,2.53-.25,10.31-1.05,20.45-.38,30.26,3.2,13.87,5.07,23.32,14.72,29.12,28.16,2.27,5.27,3.55,10.75,4.11,16.43,1.07,10.83,.54,21.56-2.43,32.08-5.17,18.32-16.49,31.52-33.65,39.62-4.53,2.14-9.31,3.84-14.12,5.28-25.49,7.63-51.02,15.12-76.54,22.63-2.67,.79-5.37,1.65-8.11,2-7.83,.99-13.19-2.45-15.62-9.95-6.61-20.36-13.14-40.74-19.7-61.11-13.44-41.73-26.88-83.47-40.31-125.2-.9-2.81-2.01-5.59-2.53-8.47-.46-2.56-.51-5.27-.23-7.85,.41-3.82,2.34-7.01,5.66-9.04,1.95-1.19,4.11-2.2,6.32-2.79,22.56-5.95,45.14-11.8,67.71-17.68,7.19-1.87,14.33-3.97,21.58-5.6,18.85-4.24,35.46-.04,48.84,14.22,9.52,10.15,15.45,22.36,17.49,36.15,2.28,15.37-1.28,29.21-12.28,40.69-1.27,1.32-2.66,2.54-4.05,3.74-1.33,1.13-2.75,2.17-4.13,3.24,.03,.17,.06,.35,.09,.52Zm-71.04,25.28c-.2,0-.4-.02-.61-.02-.47-1.34-.96-2.66-1.4-4.01-5.7-17.55-11.4-35.11-17.1-52.66-.29-.88-.64-1.74-.94-2.53-3.25,.39-30.57,9.44-32.02,10.57,15.97,50.7,33.38,100.96,48.68,152.14,8.95-2.9,17.81-5.78,26.83-8.7-.14-.94-.2-1.64-.35-2.32-.77-3.43-1.56-6.85-2.33-10.28-.18-.81-.6-1.64,.15-2.64,.72,.54,1.35,.99,1.97,1.47,5.32,4.1,11.24,6.8,17.99,7.2,16.49,.97,29.82-5.35,40.07-18.09,7.41-9.21,10.47-20.08,10.5-31.73,.04-14.37-3.86-27.78-10.99-40.24-4.11-7.17-9.46-13.27-16.34-17.94-7.37-5-15.52-7.51-24.42-7.3-6.98,.16-13.58,2.02-19.81,5.15-8.91,4.48-15.63,11.01-19.11,20.56-.18,.49-.51,.92-.77,1.39Z"/>
  <path class="cls-1" d="M587.97,138.19c-2.71-27.01-1.79-54.09-1.98-81.32h23.83v115.32c-1.7,.52-22.38,.72-27.41,.24-7.76-14-15.59-28.11-23.41-42.23-7.79-14.07-15.26-28.31-21.44-43.2-.17,.06-.34,.11-.51,.17,.31,14.16,.74,28.32,.89,42.48,.15,14.21,.03,28.42,.03,42.78h-23.75V56.92c.58-.07,1.18-.2,1.79-.2,8.88-.01,17.76,0,26.64-.03,1.21,0,2.05,.21,2.72,1.41,10.04,18.1,20.31,36.07,30.13,54.29,4.16,7.72,7.37,15.95,11.01,23.94,.31,.69,.65,1.37,.97,2.05,.16-.07,.32-.13,.48-.2Z"/>
  <path class="cls-1" d="M286.7,58.39c2.63-.39,5.14-.85,7.67-1.11,12.67-1.31,25.36-1.87,38.08-1.01,8.13,.55,15.86,2.46,23.08,6.56,15.8,8.97,17.96,32.31,1.4,43.1-2.26,1.47-4.7,2.66-7.38,4.17,.97,.35,1.73,.62,2.49,.89,8.91,3.15,15.86,8.62,18.79,17.81,3.9,12.22,1.4,23.21-7.84,32.37-3.81,3.78-8.45,6.28-13.48,8.06-5.99,2.12-12.2,3.25-18.5,3.83-12.22,1.13-24.44,.83-36.66-.06-2.53-.18-5.04-.58-7.65-.89V58.39Zm25.86,95.65c.71,.15,1.39,.4,2.08,.41,4.15,.03,8.32,.21,12.46-.05,4.1-.26,7.97-1.51,11.49-3.77,8.45-5.41,9.37-20.37-1.09-25.86-1.61-.85-3.35-1.54-5.1-2.05-6.4-1.85-12.97-1.5-19.52-1.27-.06,0-.12,.1-.32,.3v32.29Zm-.02-51.44c4.21,0,8.12,.17,12.01-.05,4.17-.24,8.24-1.12,11.83-3.44,4.45-2.88,6.36-7.03,5.88-12.25-.47-5.03-3.27-8.35-7.88-10.21-.96-.39-1.95-.71-2.96-.94-5.77-1.35-11.58-.98-17.39-.29-.52,.06-1.01,.34-1.49,.51v26.68Z"/>
  <path class="cls-1" d="M923.38,112.97c-.16,9.6-1.17,18.06-4.16,26.18-7.22,19.57-21.21,31.04-41.76,34.49-9.11,1.53-18.18,1.3-27.09-1.25-16.93-4.85-28.08-15.97-34.23-32.24-3.71-9.79-4.82-19.97-4.03-30.4,.69-9.03,2.75-17.69,7.01-25.7,9.28-17.45,23.88-26.99,43.53-28.92,7.9-.77,15.67-.11,23.25,2.19,15.82,4.81,26.53,15.24,32.7,30.41,3.85,9.47,4.6,17.23,4.79,25.24Zm-27.49,1.5c-.55-4.35-.87-8.74-1.72-13.03-1.21-6.18-3.68-11.86-7.67-16.84-9.76-12.16-28.05-11.8-37.58-.48-2.6,3.09-4.69,6.49-6.04,10.27-4.82,13.5-4.9,27.05-.05,40.56,1.61,4.48,4.14,8.43,7.51,11.84,9.58,9.69,26.53,9.43,35.69-1.36,2.3-2.7,4.1-5.69,5.48-8.95,2.98-7.03,3.95-14.43,4.36-22.03Z"/>
  <path class="cls-1" d="M496.72,113.89c-.2,11.01-1.9,21.68-6.86,31.61-7.46,14.93-19.53,23.98-35.73,27.53-10.15,2.22-20.35,2.22-30.39-.63-16.46-4.67-27.52-15.38-33.84-31.09-3.85-9.56-5.11-19.57-4.57-29.84,.51-9.7,2.61-19,7.21-27.59,9.33-17.42,23.97-26.92,43.63-28.76,9.72-.91,19.19,.24,28.2,4.03,14.28,6,23.43,16.81,28.55,31.22,2.7,7.61,3.73,15.5,3.8,23.51Zm-27.71-1.32c-.33-2.48-.66-6.96-1.55-11.32-1.38-6.74-4.13-12.89-8.86-18.05-9.4-10.25-25.75-9.88-34.82-.68-3.79,3.84-6.42,8.34-8.12,13.4-3.55,10.55-3.88,21.29-1.58,32.13,1.33,6.26,3.82,11.99,7.94,16.97,9.83,11.87,28.55,11.76,38.1-.45,2.13-2.73,3.81-5.7,5.09-8.91,2.71-6.78,3.56-13.88,3.8-23.09Z"/>
  <path class="cls-1" d="M1027.18,59.9c-1.86,6.98-3.63,13.6-5.46,20.47-.94-.31-1.74-.55-2.53-.83-9.24-3.19-18.68-4.35-28.32-2.43-13.55,2.69-22.47,10.68-26.27,23.99-2.6,9.1-2.63,18.34,.08,27.44,4.04,13.54,13.36,21.28,27.16,23.54,9.45,1.55,18.8,.55,27.95-2.31,.53-.17,1.07-.31,1.6-.46,.07-.02,.16,.02,.52,.07,1.21,6.62,2.44,13.33,3.67,20.06-2.95,1.56-5.9,2.28-8.86,2.89-13.48,2.82-27,3.31-40.4-.22-22.12-5.83-35.41-20.16-39.74-42.58-2.47-12.8-1.68-25.5,3-37.74,6.59-17.23,19.21-28.11,36.6-33.64,9.08-2.89,18.44-3.75,27.95-3.13,6.16,.4,12.25,1.2,18.15,3.06,1.58,.5,3.12,1.16,4.89,1.83Z"/>
  <path class="cls-1" d="M762.03,150.73h46.01v21.74h-71.92V57.12c1.67-.5,22.68-.62,25.85-.09,.13,6.13,.04,12.33,.06,18.53,.02,6.23,0,12.47,0,18.7v56.47Z"/>
  <path class="cls-3" d="M96.49,130.43c.26-.46,.59-.9,.77-1.39,3.48-9.54,10.21-16.07,19.11-20.56,6.23-3.13,12.83-4.99,19.81-5.15,8.9-.21,17.05,2.3,24.42,7.3,6.88,4.67,12.23,10.76,16.34,17.94,7.13,12.46,11.02,25.87,10.99,40.24-.03,11.65-3.09,22.52-10.5,31.73-10.25,12.73-23.58,19.06-40.07,18.09-6.75-.4-12.68-3.09-17.99-7.2-.62-.47-1.24-.93-1.97-1.47-.75,1-.33,1.83-.15,2.64,.77,3.43,1.57,6.85,2.33,10.28,.15,.68,.21,1.38,.35,2.32-9.02,2.93-17.88,5.8-26.83,8.7-15.3-51.18-32.71-101.44-48.68-152.14,1.46-1.13,28.78-10.18,32.02-10.57,.3,.8,.65,1.65,.94,2.53,5.7,17.55,11.4,35.11,17.1,52.66,.44,1.35,.93,2.67,1.4,4.01,.2,0,.4,.02,.61,.02Zm63.28,42.97c-.36-11.12-2.97-20.1-7.59-28.49-2.21-4.02-5.01-7.61-8.6-10.53-5.05-4.1-10.74-6.01-17.33-5.59-15.34,.96-24.9,14.95-22.41,29.26,.53,3.05,1.54,6.03,2.48,8.99,1.74,5.48,3.38,11,5.45,16.36,4.35,11.26,16.62,17.8,27.37,15.32,9.6-2.21,16.42-7.72,19.26-17.39,.89-3.03,1.09-6.26,1.37-7.93Z"/>
  <path class="cls-3" d="M653.94,162.77c-.26,2.69-.51,5.39-.77,8.09-.05,.53-.18,1.06-.3,1.78-7.3-.03-15.48-.07-22.73-.1,1.15-41.14,.53-81.12,1.07-122.07,1.34-.48,23.94-.56,26.41-.06,.03,.65,.08,1.37,.08,2.08-.06,14.22-.13,27.44-.19,41.66,0,1.09,.04,2.18,.06,3.27,0,.15,0,.15,.01,.21,.3-.27,.65-.51,.9-.83,4.85-6.14,11.34-9.3,18.94-10.43,5.31-.79,10.59-.55,15.74,1.01,6.56,1.99,11.92,5.8,16.11,11.23,3.91,5.08,6.35,10.83,7.63,17.07,2.21,10.83,1.83,21.59-1.67,32.1-2.83,8.52-7.69,15.74-15.33,20.69-10.57,6.85-21.85,8.26-33.68,3.57-4.84-1.92-8.53-5.32-11.43-9.6-.24-.36-.5-.72-.77-1.1l-.06,1.45Zm35.62-20.75c2.05-6.99,2.27-13.11,1.12-19.28-.55-2.95-1.56-5.76-3.2-8.31-2.31-3.59-5.46-5.94-9.65-7.03-9.75-2.55-18.57,4.19-19.95,13.6-.29,2-.28,4.06-.3,6.1-.04,3.76-.15,7.54,.04,11.29,.4,7.89,6.7,14.48,13.9,15.15,6.43,.59,11.81-1.43,15.56-6.86,1.17-1.7,1.96-3.67,2.48-4.65Z"/>
  <path d="M159.77,173.4c-.28,1.67-.48,4.9-1.37,7.93-2.83,9.67-9.65,15.18-19.26,17.39-10.75,2.48-23.03-4.07-27.37-15.32-2.07-5.36-3.71-10.88-5.45-16.36-.94-2.96-1.95-5.94-2.48-8.99-2.49-14.31,7.07-28.29,22.41-29.26,6.59-.41,12.28,1.49,17.33,5.59,3.59,2.91,6.39,6.51,8.6,10.53,4.61,8.39,7.22,17.37,7.59,28.49Zm-3.32-1.22c-.32-8.99-3.8-20.39-8.72-27.87-2.4-3.64-5.3-6.77-9.01-9.15-10.14-6.51-26.32-2.99-31.32,10.72-1.49,4.08-2.14,8.34-.96,12.47,2.41,8.43,5.25,16.73,7.94,25.08,.19,.6,.55,1.15,.86,1.71,4.34,7.78,12.93,12.25,21.43,11.15,9.14-1.18,16.48-7.51,18.64-16.32,.62-2.54,.77-5.19,1.13-7.8Z"/>
  <rect class="cls-2" width="1046.4" height="259.44"/>
</svg>